<svg width="15" height="15" viewBox="0 0 15 15" fill="none" xmlns="http://www.w3.org/2000/svg">
<path fill-rule="evenodd" clip-rule="evenodd" d="M0.375585 0.375586C-0.125195 0.876366 -0.125194 1.68829 0.375586 2.18907L5.68651 7.5L0.375586 12.8109C-0.125195 13.3117 -0.125195 14.1236 0.375586 14.6244C0.876367 15.1252 1.68829 15.1252 2.18907 14.6244L7.5 9.31349L12.8109 14.6244C13.3117 15.1252 14.1236 15.1252 14.6244 14.6244C15.1252 14.1236 15.1252 13.3117 14.6244 12.8109L9.31349 7.5L14.6244 2.18907C15.1252 1.68829 15.1252 0.876366 14.6244 0.375585C14.1236 -0.125195 13.3117 -0.125194 12.8109 0.375586L7.5 5.68651L2.18907 0.375586C1.68829 -0.125195 0.876366 -0.125195 0.375585 0.375586Z" fill="#34515E"/>
</svg>
