<svg width="280" height="280" viewBox="0 0 280 280" fill="none" xmlns="http://www.w3.org/2000/svg">
<path fill-rule="evenodd" clip-rule="evenodd" d="M92.5 0C91.1193 0 90 1.1193 90 2.50001V90H2.5C1.11929 90 0 91.1193 0 92.5C0 93.8807 1.1193 95 2.50001 95H90V185H2.5C1.11929 185 0 186.119 0 187.5C0 188.881 1.1193 190 2.50001 190H90V277.5C90 278.881 91.1193 280 92.5 280C93.8807 280 95 278.881 95 277.5V190H185V277.5C185 278.881 186.119 280 187.5 280C188.881 280 190 278.881 190 277.5V190H277.5C278.881 190 280 188.881 280 187.5C280 186.119 278.881 185 277.5 185H190V95H277.5C278.881 95 280 93.8807 280 92.5C280 91.1193 278.881 90 277.5 90H190V2.5C190 1.11929 188.881 0 187.5 0C186.119 0 185 1.1193 185 2.50001V90H95V2.5C95 1.11929 93.8807 0 92.5 0ZM185 185V95H95V185H185Z" fill="#AABDC6"/>
</svg>
