<svg width="41" height="41" viewBox="0 0 41 41" fill="none" xmlns="http://www.w3.org/2000/svg">
<path fill-rule="evenodd" clip-rule="evenodd" d="M39.916 1.02513C38.5492 -0.341709 36.3331 -0.341709 34.9663 1.02513L20.4706 15.5208L5.97487 1.02513C4.60804 -0.341709 2.39196 -0.341709 1.02513 1.02513C-0.341708 2.39196 -0.341708 4.60804 1.02513 5.97487L15.5208 20.4706L1.02513 34.9663C-0.341709 36.3331 -0.341709 38.5492 1.02513 39.916C2.39196 41.2828 4.60804 41.2828 5.97487 39.916L20.4706 25.4203L34.9663 39.916C36.3331 41.2828 38.5492 41.2828 39.916 39.916C41.2828 38.5492 41.2828 36.3331 39.916 34.9663L25.4203 20.4706L39.916 5.97487C41.2828 4.60804 41.2828 2.39196 39.916 1.02513Z" fill="#FF3266"/>
</svg>
